<svg width="201" height="201" viewBox="0 0 201 201" fill="none" xmlns="http://www.w3.org/2000/svg">
<path d="M197.074 44.1259C194.456 41.5082 191.298 40.1992 187.599 40.1992H13.4C9.701 40.1992 6.5436 41.5086 3.92631 44.1259C1.30938 46.7432 0 49.9017 0 53.5995V147.399C0 151.099 1.30938 154.255 3.92631 156.873C6.54397 159.491 9.701 160.801 13.4 160.801H187.599C191.298 160.801 194.456 159.491 197.074 156.873C199.69 154.255 201 151.099 201 147.399V53.5995C201 49.9017 199.69 46.7432 197.074 44.1259ZM187.599 147.399H13.4V53.5995H187.599V147.399Z" fill="white"/>
<path d="M28.4745 133.998H38.5243C39.6411 133.998 40.1996 133.438 40.1996 132.323V122.273C40.1996 121.159 39.6422 120.598 38.5243 120.598H28.4745C27.3584 120.598 26.7996 121.159 26.7996 122.273V132.323C26.7996 133.438 27.3584 133.998 28.4745 133.998Z" fill="white"/>
<path d="M28.4745 107.201H51.9246C53.0411 107.201 53.6003 106.64 53.6003 105.524V95.4737C53.6003 94.3572 53.0411 93.7998 51.9246 93.7987H28.4745C27.3584 93.7987 26.7996 94.3572 26.7996 95.4737V105.524C26.7996 106.64 27.3584 107.201 28.4745 107.201Z" fill="white"/>
<path d="M28.4745 80.3991H38.5243C39.6411 80.3991 40.1996 79.8399 40.1996 78.7234V68.6745C40.1996 67.5576 39.6422 67.0006 38.5243 66.9988H28.4745C27.3584 66.9988 26.7996 67.5576 26.7996 68.6745V78.7234C26.7996 79.8399 27.3584 80.3991 28.4745 80.3991Z" fill="white"/>
<path d="M145.726 120.599H55.276C54.1591 120.599 53.6003 121.159 53.6003 122.275V132.324C53.6003 133.438 54.1591 134 55.276 134H145.723C146.839 134 147.399 133.441 147.399 132.324V122.275C147.399 121.159 146.84 120.599 145.726 120.599Z" fill="white"/>
<path d="M66.9999 105.524C66.9999 106.64 67.5583 107.201 68.6737 107.201H78.7249C79.841 107.201 80.3988 106.64 80.3988 105.524V95.4737C80.3988 94.3572 79.8421 93.7998 78.7249 93.7987H68.6737C67.5583 93.7987 66.9999 94.3572 66.9999 95.4737V105.524Z" fill="white"/>
<path d="M55.276 80.3991H65.325C66.4418 80.3991 67.0006 79.8399 67.0006 78.7234V68.6745C67.0006 67.5576 66.4418 67.0006 65.325 66.9988H55.276C54.1591 66.9988 53.6003 67.5576 53.6003 68.6745V78.7234C53.6003 79.8399 54.1595 80.3991 55.276 80.3991Z" fill="white"/>
<path d="M93.7991 105.524C93.7991 106.64 94.3579 107.201 95.474 107.201H105.524C106.641 107.201 107.2 106.64 107.2 105.524V95.4737C107.2 94.3572 106.641 93.7998 105.524 93.7987H95.474C94.3579 93.7987 93.7991 94.3572 93.7991 95.4737V105.524V105.524Z" fill="white"/>
<path d="M82.0744 80.3991H92.1234C93.2403 80.3991 93.7991 79.8399 93.7991 78.7234V68.6745C93.7991 67.5576 93.2414 67.0006 92.1234 66.9988H82.0744C80.9576 66.9988 80.3987 67.5576 80.3987 68.6745V78.7234C80.3987 79.8399 80.9576 80.3991 82.0744 80.3991Z" fill="white"/>
<path d="M120.599 105.524C120.599 106.64 121.159 107.201 122.273 107.201H132.324C133.441 107.201 133.998 106.64 133.998 105.524V95.4737C133.998 94.3572 133.44 93.7998 132.324 93.7987H122.273C121.159 93.7987 120.599 94.3572 120.599 95.4737V105.524Z" fill="white"/>
<path d="M172.523 120.599H162.475C161.358 120.599 160.799 121.159 160.799 122.275V132.324C160.799 133.438 161.358 134 162.475 134H172.523C173.64 134 174.2 133.441 174.2 132.324V122.275C174.2 121.159 173.641 120.599 172.523 120.599Z" fill="white"/>
<path d="M108.875 80.3991H118.926C120.042 80.3991 120.599 79.8399 120.599 78.7234V68.6745C120.599 67.5576 120.042 67.0006 118.926 66.9988H108.875C107.758 66.9988 107.201 67.5576 107.201 68.6745V78.7234C107.201 79.8399 107.758 80.3991 108.875 80.3991Z" fill="white"/>
<path d="M135.675 80.3991H145.723C146.84 80.3991 147.399 79.8399 147.399 78.7234V68.6745C147.399 67.5576 146.84 67.0006 145.723 66.9988H135.675C134.558 66.9988 133.998 67.5576 133.998 68.6745V78.7234C133.998 79.8399 134.558 80.3991 135.675 80.3991Z" fill="white"/>
<path d="M147.398 105.524C147.398 106.64 147.956 107.201 149.073 107.201H172.523C173.64 107.201 174.199 106.64 174.199 105.524V68.6745C174.199 67.5576 173.641 67.0006 172.523 66.9988H162.475C161.358 66.9988 160.798 67.5576 160.798 68.6745V93.7987H149.074C147.957 93.7987 147.399 94.3572 147.399 95.4737V105.524H147.398Z" fill="white"/>
</svg>
