<svg width="159" height="13" viewBox="0 0 159 13" fill="none" xmlns="http://www.w3.org/2000/svg">
<path d="M9.50635 6.60938C9.50635 7.72396 9.31364 8.70312 8.92822 9.54688C8.54281 10.3854 7.99072 11.0312 7.27197 11.4844C6.55843 11.9323 5.73551 12.1562 4.80322 12.1562C3.88135 12.1562 3.05843 11.9323 2.33447 11.4844C1.61572 11.0312 1.05843 10.388 0.662598 9.55469C0.271973 8.72135 0.074056 7.76042 0.0688477 6.67188V6.03125C0.0688477 4.92188 0.26416 3.94271 0.654785 3.09375C1.05062 2.24479 1.60531 1.59635 2.31885 1.14844C3.0376 0.695312 3.86051 0.46875 4.7876 0.46875C5.71468 0.46875 6.53499 0.692708 7.24854 1.14062C7.96729 1.58333 8.52197 2.22396 8.9126 3.0625C9.30322 3.89583 9.50114 4.86719 9.50635 5.97656V6.60938ZM7.52979 6.01562C7.52979 4.75521 7.2902 3.78906 6.81104 3.11719C6.33708 2.44531 5.6626 2.10938 4.7876 2.10938C3.93343 2.10938 3.26416 2.44531 2.77979 3.11719C2.30062 3.78385 2.05583 4.72917 2.04541 5.95312V6.60938C2.04541 7.85938 2.2876 8.82552 2.77197 9.50781C3.26156 10.1901 3.93864 10.5312 4.80322 10.5312C5.67822 10.5312 6.3501 10.1979 6.81885 9.53125C7.29281 8.86458 7.52979 7.89062 7.52979 6.60938V6.01562Z" fill="#373737"/>
<path d="M22.1954 0.625V8.22656C22.1954 9.4349 21.8074 10.3932 21.0313 11.1016C20.2605 11.8047 19.2319 12.1562 17.9454 12.1562C16.6433 12.1562 15.6095 11.8099 14.8438 11.1172C14.0782 10.4193 13.6954 9.45312 13.6954 8.21875V0.625H15.6642V8.23438C15.6642 8.99479 15.8569 9.57552 16.2423 9.97656C16.6277 10.3776 17.1954 10.5781 17.9454 10.5781C19.4662 10.5781 20.2267 9.77604 20.2267 8.17188V0.625H22.1954Z" fill="#373737"/>
<path d="M30.8923 7.61719H28.6892V12H26.7126V0.625H30.7126C32.0251 0.625 33.0381 0.919271 33.7517 1.50781C34.4652 2.09635 34.822 2.94792 34.822 4.0625C34.822 4.82292 34.6371 5.46094 34.2673 5.97656C33.9027 6.48698 33.3923 6.88021 32.736 7.15625L35.2907 11.8984V12H33.1735L30.8923 7.61719ZM28.6892 6.03125H30.7204C31.3871 6.03125 31.9079 5.86458 32.2829 5.53125C32.6579 5.19271 32.8454 4.73177 32.8454 4.14844C32.8454 3.53906 32.6709 3.06771 32.322 2.73438C31.9782 2.40104 31.4626 2.22917 30.7751 2.21875H28.6892V6.03125Z" fill="#373737"/>
<path d="M54.161 8.29688C54.0465 9.51042 53.5985 10.4583 52.8173 11.1406C52.036 11.8177 50.997 12.1562 49.7001 12.1562C48.7938 12.1562 47.9944 11.9427 47.3017 11.5156C46.6142 11.0833 46.0829 10.4714 45.7079 9.67969C45.3329 8.88802 45.1376 7.96875 45.122 6.92188V5.85938C45.122 4.78646 45.3121 3.84115 45.6923 3.02344C46.0725 2.20573 46.6168 1.57552 47.3251 1.13281C48.0386 0.690104 48.8616 0.46875 49.7938 0.46875C51.0491 0.46875 52.0595 0.809896 52.8251 1.49219C53.5907 2.17448 54.036 3.13802 54.161 4.38281H52.1923C52.0985 3.5651 51.859 2.97656 51.4735 2.61719C51.0933 2.2526 50.5334 2.07031 49.7938 2.07031C48.9345 2.07031 48.273 2.38542 47.8095 3.01562C47.3511 3.64062 47.1168 4.5599 47.1063 5.77344V6.78125C47.1063 8.01042 47.3251 8.94792 47.7626 9.59375C48.2053 10.2396 48.8511 10.5625 49.7001 10.5625C50.4761 10.5625 51.0595 10.388 51.4501 10.0391C51.8407 9.6901 52.0881 9.10938 52.1923 8.29688H54.161Z" fill="#373737"/>
<path d="M67.4126 6.60938C67.4126 7.72396 67.2199 8.70312 66.8345 9.54688C66.4491 10.3854 65.897 11.0312 65.1782 11.4844C64.4647 11.9323 63.6418 12.1562 62.7095 12.1562C61.7876 12.1562 60.9647 11.9323 60.2407 11.4844C59.522 11.0312 58.9647 10.388 58.5688 9.55469C58.1782 8.72135 57.9803 7.76042 57.9751 6.67188V6.03125C57.9751 4.92188 58.1704 3.94271 58.561 3.09375C58.9569 2.24479 59.5116 1.59635 60.2251 1.14844C60.9438 0.695312 61.7668 0.46875 62.6938 0.46875C63.6209 0.46875 64.4412 0.692708 65.1548 1.14062C65.8735 1.58333 66.4282 2.22396 66.8188 3.0625C67.2095 3.89583 67.4074 4.86719 67.4126 5.97656V6.60938ZM65.436 6.01562C65.436 4.75521 65.1965 3.78906 64.7173 3.11719C64.2433 2.44531 63.5688 2.10938 62.6938 2.10938C61.8397 2.10938 61.1704 2.44531 60.686 3.11719C60.2069 3.78385 59.9621 4.72917 59.9517 5.95312V6.60938C59.9517 7.85938 60.1938 8.82552 60.6782 9.50781C61.1678 10.1901 61.8449 10.5312 62.7095 10.5312C63.5845 10.5312 64.2563 10.1979 64.7251 9.53125C65.1991 8.86458 65.436 7.89062 65.436 6.60938V6.01562Z" fill="#373737"/>
<path d="M74.3438 0.625L77.6251 9.34375L80.8985 0.625H83.4532V12H81.4845V8.25L81.6798 3.23438L78.3204 12H76.9063L73.5548 3.24219L73.7501 8.25V12H71.7813V0.625H74.3438Z" fill="#373737"/>
<path d="M90.7595 0.625L94.0407 9.34375L97.3142 0.625H99.8689V12H97.9001V8.25L98.0954 3.23438L94.736 12H93.322L89.9704 3.24219L90.1657 8.25V12H88.197V0.625H90.7595Z" fill="#373737"/>
<path d="M112.933 0.625V8.22656C112.933 9.4349 112.545 10.3932 111.769 11.1016C110.998 11.8047 109.969 12.1562 108.683 12.1562C107.381 12.1562 106.347 11.8099 105.581 11.1172C104.816 10.4193 104.433 9.45312 104.433 8.21875V0.625H106.402V8.23438C106.402 8.99479 106.594 9.57552 106.98 9.97656C107.365 10.3776 107.933 10.5781 108.683 10.5781C110.204 10.5781 110.964 9.77604 110.964 8.17188V0.625H112.933Z" fill="#373737"/>
<path d="M126.474 12H124.497L119.427 3.92969V12H117.45V0.625H119.427L124.513 8.72656V0.625H126.474V12Z" fill="#373737"/>
<path d="M133.295 12H131.327V0.625H133.295V12Z" fill="#373737"/>
<path d="M146.109 2.21875H142.563V12H140.602V2.21875H137.086V0.625H146.109V2.21875Z" fill="#373737"/>
<path d="M153.845 6.01562L156.463 0.625H158.65L154.838 7.8125V12H152.853V7.8125L149.033 0.625H151.228L153.845 6.01562Z" fill="#373737"/>
</svg>
